<svg xmlns="http://www.w3.org/2000/svg" width="585" height="135" fill="none"><g clip-path="url(#a)"><g clip-path="url(#b)"><path fill="#fff" d="M1.39 1.955h132.09v132.09H1.39V1.955Z"/><path fill="#000" d="m63.035 76.805-22.89-42.71h10.568l13.21 26.86c0 .44.44.882.881 1.323.441.44.441.882.882 1.759l.441.44v.441c.441.882.441 1.323.882 2.206.441.44.441 1.323.882 1.758.441-1.323 1.323-2.205 1.759-3.964.441-1.323 1.323-2.64 2.205-3.963l13.209-26.86h9.686L71.86 77.252v27.3h-8.804l-.021-27.746Z"/><path fill="#fff" d="M182.36 36.392c5.565 0 10.395 1.486 14.112 4.462l-3.711 4.463c-3.345-2.226-6.684-3.712-10.763-3.712-6.316 0-11.14 3.344-13.739 9.66-1.486 3.712-2.226 8.542-2.226 14.858 0 4.83.735 8.914 1.858 11.886 2.972 7.056 7.802 10.395 15.225 10.395 4.085 0 7.802-1.113 11.141-3.712l3.712 4.83c-4.83 2.971-9.975 4.462-15.593 4.462-6.683 0-12.253-2.598-16.711-8.169-4.462-5.25-6.315-12.253-6.315-20.79 0-8.536 2.226-15.225 6.683-20.79 4.084-4.83 9.66-7.801 16.343-7.801l-.016-.042Zm21.168 36.766c0-6.684 1.486-11.886 4.83-15.593 3.345-3.706 7.429-5.943 12.627-5.943 5.943 0 10.762 2.226 14.112 7.056 2.598 3.712 3.711 8.915 3.711 15.225 0 7.429-2.226 13.372-6.315 17.084a16.435 16.435 0 0 1-11.141 4.084c-5.565 0-9.66-1.858-12.999-5.943-3.344-3.712-4.825-9.282-4.825-15.97Zm25.998-10.763c-1.858-3.344-4.462-5.25-8.541-5.25-4.08 0-6.684 1.486-8.542 4.463-1.486 2.226-1.859 5.943-1.859 10.762 0 6.316.735 10.763 2.599 13.372 1.864 2.61 4.463 4.084 8.169 4.084 4.463 0 7.429-2.226 8.915-6.315.735-2.226 1.113-5.25 1.113-8.915.367-5.565-.368-9.66-1.859-12.253l.005.052Zm21.158.735c0-4.084-.368-7.429-1.486-9.975l6.316-1.486c1.113 1.859 1.486 4.085 1.486 5.943v.368c1.485-1.486 2.971-2.972 5.25-4.085 2.598-1.485 4.83-2.226 7.056-2.226 3.344 0 6.315 1.486 8.169 4.085.367.735 1.113 1.858 1.485 2.599 4.463-4.463 8.542-6.684 12.999-6.684 2.972 0 5.565 1.113 7.429 2.972 1.859 2.226 2.972 4.83 2.972 7.801V93.26h-6.783V62.81c0-4.085-1.859-5.943-5.25-5.943-1.859 0-4.085.735-5.943 2.226-.735.735-2.226 1.858-4.085 3.344l-.735.735v30.083h-7.056V64.243c0-2.599-.367-4.462-1.113-5.25-1.113-1.113-2.226-1.486-4.084-1.486-2.972 0-6.316 1.859-10.395 5.565v30.45h-6.227l-.005-30.392Zm63.142-28.224 6.683-1.486c.735 2.972 1.113 6.316 1.113 10.395v13.74c3.712-3.712 7.801-5.565 11.886-5.565 4.83 0 8.914 1.858 11.513 5.565 2.972 3.711 4.463 8.914 4.463 15.225 0 6.683-1.486 11.886-4.463 15.97-2.977 4.085-7.056 5.943-11.886 5.943a13.128 13.128 0 0 1-6.316-1.486c-2.226-1.113-3.711-2.226-4.83-3.711l-1.113 4.462h-6.315c.735-1.858 1.113-5.25 1.113-10.395V44.556c-.368-4.463-.735-7.802-1.859-9.66l.011.01Zm10.762 25.2c-1.113.735-2.226 1.859-2.971 2.972V84.35c2.598 3.344 5.943 4.83 9.975 4.83 3.344 0 5.943-1.113 7.428-3.712 1.859-2.972 2.972-7.056 2.972-13 0-5.25-.735-8.914-2.599-11.14-1.486-2.226-4.084-3.344-7.801-3.344-2.226-.367-4.83.368-7.056 2.226l.052-.105Zm34.545-19.95c0-1.486.368-2.599 1.486-3.712 1.118-1.113 2.226-1.485 3.712-1.485 1.485 0 2.598.367 3.711 1.485 1.113 1.119 1.486 2.226 1.486 3.712 0 1.486-.367 2.599-1.486 3.712-1.118 1.113-2.226 1.486-3.711 1.486-1.486 0-2.599-.368-3.712-1.486-1.113-1.118-1.486-2.226-1.486-3.712Zm1.544 53.435V52.746l6.683-1.113V93.6l-6.683-.01Zm21.115-30.46c0-2.972 0-4.83-.367-5.566 0-1.113-.735-2.226-1.486-4.084l6.316-1.859a13.125 13.125 0 0 1 1.485 6.316c4.085-4.085 8.542-6.316 12.999-6.316 2.226 0 4.085.368 5.943 1.486 1.859 1.118 3.345 2.599 4.085 4.462.735 1.486 1.113 2.972 1.113 4.83v31.196h-6.316V65.745c0-3.345-.367-5.565-1.486-6.684a6.134 6.134 0 0 0-4.457-1.858c-1.486 0-3.712.735-5.943 1.858a21.638 21.638 0 0 0-5.57 4.085v30.45h-6.316V63.13Zm44.94-1.487-3.344-4.462c5.565-3.712 11.14-5.565 17.083-5.565 5.943 0 9.66 2.226 11.514 6.316.735 1.485.735 3.711.735 7.056v2.226l-.368 13.371v1.859c0 2.226 0 3.712.368 4.83.367 1.486 1.485 2.599 2.971 3.344l-3.344 4.463c-2.972-1.113-4.83-2.972-5.565-5.943-3.712 3.711-7.802 5.565-11.886 5.565-4.085 0-7.429-1.113-9.975-3.345-2.226-1.858-3.344-4.83-3.344-8.541a12.123 12.123 0 0 1 5.57-10.768c3.712-2.599 9.282-3.712 15.97-3.712h2.972v-2.971c0-3.345-.368-5.565-1.486-6.316a6.985 6.985 0 0 0-5.565-2.226c-2.226 0-4.83.735-7.801 1.858l-4.463 2.972-.042-.01Zm19.688 21.914.367-10.763h-3.344c-5.943 0-9.66 1.113-11.886 3.345-1.486 1.485-2.226 3.711-2.226 6.683 0 4.83 2.226 7.429 7.056 7.429a11.816 11.816 0 0 0 9.975-6.684l.058-.01Zm27.478-30.828h10.395l-1.858 5.25h-8.542v26.37c0 2.227.367 3.712 1.113 4.83.735.736 2.226 1.486 4.084 1.486 1.486 0 2.972-.367 4.085-.735l.735 4.085c-2.226 1.113-4.463 1.486-7.056 1.486-6.316 0-9.282-2.972-9.282-9.282V57.996h-5.57v-5.25h5.25v-.735c0-.735.367-3.712.735-8.542V42.35l6.683-1.486c-.735 4.462-.735 8.542-.735 11.886l-.037-.021Zm17.084 20.422c0-6.683 1.485-11.886 4.83-15.592 2.971-3.712 7.428-5.943 12.626-5.943 5.943 0 10.762 2.226 14.112 7.056 2.599 3.712 3.712 8.914 3.712 15.225 0 7.429-2.226 13.372-6.316 17.083a16.433 16.433 0 0 1-11.141 4.085c-5.565 0-9.66-1.859-12.999-5.943-2.971-3.712-4.824-9.282-4.824-15.97Zm26.37-10.762c-1.858-3.344-4.462-5.25-8.541-5.25-4.08 0-6.684 1.486-8.542 4.462-1.486 2.226-1.859 5.943-1.859 10.763 0 6.316.735 10.762 2.599 13.372 1.864 2.609 4.463 4.084 8.169 4.084 4.463 0 7.429-2.226 8.915-6.316.735-2.226 1.113-5.25 1.113-8.914 0-5.565-.735-9.66-1.859-12.254l.005.053Zm21.158-.01c0-3.712-.368-6.684-1.486-8.915l6.316-1.859a13.126 13.126 0 0 1 1.486 6.316v.735c3.344-4.462 7.056-6.683 11.513-6.683.735 0 1.486 0 2.226.367l-2.599 7.056c-.735-.367-1.486-.367-1.858-.367-1.486 0-3.345.367-4.83 1.486-1.486 1.118-2.972 2.226-3.712 3.711a13.85 13.85 0 0 0-.74 4.458v25.62h-6.316V62.379Z"/></g></g><defs><clipPath id="a"><path fill="#fff" d="M0 0h585v135H0z"/></clipPath><clipPath id="b"><path fill="#fff" d="M0 0h979v135H0z"/></clipPath></defs></svg>